<svg enable-background="new 0 0 128 128" viewBox="0 0 128 128" xmlns="http://www.w3.org/2000/svg" xmlns:xlink="http://www.w3.org/1999/xlink"><radialGradient id="a" cx="63.833" cy="4" gradientUnits="userSpaceOnUse" r="120.21"><stop offset="0" stop-color="#42a5f5"/><stop offset=".3522" stop-color="#42a5f5"/><stop offset=".6798" stop-color="#2b8be2"/><stop offset="1" stop-color="#1976d2"/></radialGradient><clipPath id="b"><circle cx="64" cy="64" r="60"/></clipPath><radialGradient id="c" cx="64" cy="4.3333" gradientUnits="userSpaceOnUse" r="120.04"><stop offset="0" stop-color="#aeea00"/><stop offset=".2373" stop-color="#ade903"/><stop offset=".3915" stop-color="#a9e40b"/><stop offset=".522" stop-color="#a2dc1a"/><stop offset=".6386" stop-color="#98d12f"/><stop offset=".7459" stop-color="#8bc34a"/><stop offset="1" stop-color="#8bc34a"/></radialGradient><circle cx="64" cy="64" fill="url(#a)" r="60"/><g clip-path="url(#b)" fill="#424242" opacity=".2"><path d="m35.66-8.53c.61 0 1.23.16 1.79.5l4.17 2.52c3.15 1.9 6.75 2.89 10.39 2.89 1.11 0 2.22-.09 3.32-.28l12.49-2.09c.21-.04.42-.05.63-.05 1.93 0 3.61 1.49 3.77 3.48l.42 5.14c.19 2.39-1.46 4.53-3.82 4.94l-1.34.24c-3.01.53-5.55 2.54-6.76 5.34-.51 1.17-.25 2.54.65 3.45l7.81 7.9c.34.35.81.54 1.29.54.09 0 .19-.01.28-.02.82-.13 1.44-.79 1.52-1.62l.87-8.97c.19-1.96 1.84-3.46 3.81-3.46h.28c1.48 0 2.83.86 3.46 2.2l1.76 3.76c.3.64.93 1 1.58 1 .32 0 .65-.09.94-.28s.62-.28.94-.28c.67 0 1.31.38 1.6 1.05l4.56 10.52c.98 2.26-.07 4.88-2.34 5.83l-3.69 1.55c-6.27 2.63-11.8 6.73-16.14 11.97l-.09.11c-.22.27-.33.61-.31.95l.25 3.9c.05.71-.47 1.34-1.18 1.43-.13.02-.25.03-.38.03-1.23 0-2.34-.8-2.71-2l-.01-.05c-.38-1.23-1.51-2.05-2.77-2.05-.14 0-.29.01-.44.03l-2.5.38c-1.88.29-3.48 1.53-4.2 3.29l-.73 1.77c-.26.62-.21 1.32.12 1.9l.08.13c.41.71 1.14 1.09 1.88 1.09.51 0 1.03-.18 1.45-.56.4-.36.92-.56 1.46-.56h.12l1.54.09c.9.05 1.5.95 1.2 1.8l-.22.63c-.43 1.23.48 2.52 1.79 2.52.97 0 1.78.73 1.88 1.69l.25 2.29c.1.87.78 1.56 1.65 1.67l.21.03c.08.01.16.01.24.01.66 0 1.27-.34 1.62-.91.96-1.59 2.68-2.54 4.51-2.54.23 0 .47.02.7.05l5.07.68c2.78.37 5.43 1.44 7.69 3.1l3.61 2.66c1.09.8 1.89 1.93 2.3 3.21.53 1.68 1.73 3.06 3.31 3.82l7.06 3.4c2.07 1 2.87 3.52 1.76 5.53l-4.85 8.8c-.55 1-1.51 1.72-2.62 1.97l-2.85.64c-1.73.39-3.01 1.87-3.15 3.64l-.03.44c-.14 1.79-.89 3.47-2.13 4.77l-14.93 15.66c-1.77 1.85-1.95 4.71-.44 6.77l1.06 1.45c.79 1.08-.01 2.54-1.27 2.54-.08 0-.17-.01-.26-.02l-2.76-.42c-1.78-.27-3.26-1.52-3.84-3.22l-1.18-3.49c-.6-1.76-.64-3.66-.13-5.45l6.23-21.96c.69-2.41-.02-5.01-1.82-6.75l-1.3-1.25c-1.51-1.45-2.55-3.32-2.98-5.36l-1.33-6.22c-.43-2.01-.05-4.1 1.05-5.84l.23-.36c.7-1.11.1-2.58-1.18-2.87l-.45-.1c-.44-.1-.83-.35-1.1-.72l-3.59-4.82c-.16-.21-.37-.37-.61-.46l-8.78-3.29c-2.24-.84-4.12-2.42-5.33-4.49l-8.5-14.54c-1.16-1.98-1.82-4.21-1.94-6.5l-.21-4.26c-.14-2.87-1.05-5.66-2.62-8.07l-2.17-3.32c-1.94-2.98-4.54-5.47-7.6-7.29l-.65-.37c-1.1-.65-2.33-.98-3.55-.98-.23 0-.45.01-.68.03-.6.06-1.2.09-1.8.09-2.13 0-4.25-.39-6.2-1.29l-7.25-3.33c-.56-.26-.8-1-.41-1.48l.01-.01 1.84-2.19c.67-.8.23-2.02-.79-2.21-.83-.15-1.32-1.02-1.02-1.81l.68-1.79c.19-.5.66-.84 1.19-.87 1.08-.07 21.59-.63 27.16-5.28.8-.66 1.97-.61 2.9-1.06.47-.23.98-.35 1.5-.35m0-3c-.97 0-1.93.22-2.8.64-.1.04-.4.12-.62.17-.8.19-1.89.45-2.91 1.29-2.14 1.79-9.81 3.93-24.91 4.57-.26.01-.43.02-.51.03-1.7.11-3.19 1.2-3.8 2.79l-.68 1.79c-.46 1.21-.37 2.55.27 3.68.21.38.47.71.77 1.01l-.57.67c0 .01-.02.03-.03.04-.76.93-1.04 2.15-.77 3.34.28 1.21 1.12 2.25 2.25 2.76l7.25 3.33c2.25 1.03 4.76 1.56 7.45 1.56.69 0 1.39-.03 2.1-.1.13-.01.26-.02.39-.02.71 0 1.41.19 2.02.56l.64.38c2.65 1.57 4.93 3.77 6.62 6.35l2.17 3.32c1.28 1.96 2.02 4.24 2.14 6.58l.21 4.26c.14 2.76.95 5.48 2.34 7.86l8.5 14.54c1.55 2.65 3.99 4.7 6.86 5.78l8.33 3.12 3.3 4.43c.49.66 1.14 1.18 1.87 1.52-1.14 2.21-1.48 4.73-.95 7.2l1.33 6.22c.56 2.64 1.89 5.03 3.84 6.9l1.3 1.25c1.01.97 1.4 2.42 1.02 3.77l-6.23 21.96c-.68 2.38-.61 4.88.18 7.23l1.18 3.49c.94 2.78 3.32 4.78 6.22 5.23l2.76.42c.24.04.48.05.71.05 1.73 0 3.3-.97 4.09-2.52s.64-3.39-.39-4.79l-1.06-1.45c-.66-.9-.57-2.13.19-2.93l14.93-15.66c1.71-1.79 2.75-4.13 2.95-6.6l.03-.44c.04-.46.37-.84.82-.95l2.85-.64c1.95-.44 3.62-1.7 4.59-3.45l4.85-8.8c.92-1.68 1.12-3.68.54-5.51-.58-1.82-1.9-3.35-3.63-4.18l-7.06-3.4c-.84-.4-1.47-1.14-1.75-2.02-.6-1.91-1.77-3.54-3.38-4.73l-3.61-2.66c-2.66-1.96-5.8-3.22-9.07-3.66l-5.07-.68c-.36-.05-.73-.07-1.1-.07-2.04 0-4 .77-5.5 2.1-.23-1.98-1.61-3.56-3.43-4.12.22-1.12-.01-2.26-.66-3.23-.77-1.15-2-1.85-3.38-1.93l-1.54-.09c-.1-.01-.2-.01-.29-.01-.48 0-.95.07-1.4.19.35-.68 1.02-1.17 1.79-1.28l2.42-.37c.77 2.44 3 4.08 5.57 4.08.26 0 .52-.02.77-.05 2.26-.3 3.92-2.32 3.77-4.6l-.21-3.24c3.96-4.66 9.02-8.36 14.66-10.73l3.69-1.55c1.84-.77 3.27-2.22 4.01-4.07s.72-3.88-.08-5.72l-4.56-10.52c-.75-1.73-2.46-2.85-4.35-2.85-.43 0-.85.06-1.26.17l-1.24-2.65c-1.12-2.39-3.54-3.93-6.18-3.93h-.28c-3.53 0-6.45 2.65-6.79 6.17l-.62 6.45-6.02-6.1c-.04-.04-.05-.1-.03-.15.82-1.88 2.51-3.22 4.53-3.58l1.34-.24c3.9-.69 6.61-4.19 6.29-8.14l-.43-5.11c-.28-3.5-3.25-6.24-6.76-6.24-.38 0-.76.03-1.13.09l-12.49 2.1c-.93.16-1.88.24-2.83.24-3.12 0-6.17-.85-8.84-2.46l-4.16-2.53c-1.01-.6-2.16-.93-3.34-.93z"/><path d="m75.46 57.28c.61 0 1.21.09 1.8.26 2.19.65 6.06 1.79 7.92 2.34.52.15.75.77.45 1.23l-.46.68c-.24.37-.65.58-1.08.58-.07 0-.14-.01-.2-.02l-8.14-1.29c-.38-.06-.76-.09-1.13-.09-.36 0-.72.03-1.08.08l-1.48.22c-.2.03-.41.05-.61.05-1.09 0-2.14-.44-2.91-1.23l-.33-.34c-.31-.32-.16-.85.27-.95 1.36-.34 3.84-.95 5.51-1.35.48-.11.98-.17 1.47-.17m0-3c-.74 0-1.47.09-2.19.26-1.67.4-4.17 1.02-5.53 1.35-1.24.31-2.23 1.26-2.58 2.49s-.01 2.56.88 3.47l.33.34c1.32 1.36 3.17 2.13 5.06 2.13.35 0 .71-.03 1.05-.08l1.48-.22c.21-.03.42-.05.63-.05.22 0 .45.02.67.05l8.14 1.29c.22.04.45.05.67.05 1.44 0 2.78-.72 3.58-1.92l.46-.68c.67-1 .82-2.28.41-3.41s-1.35-2.01-2.5-2.36l-5.5-1.62-2.42-.71c-.85-.25-1.74-.38-2.64-.38z"/><path d="m89.53 60.91c.07 0 .14.01.21.02 2.14.35 6.7 2.89 5.78 3.68-.24.21-.54.31-.85.31-.11 0-.23-.01-.34-.04l-6.62-1.77c-.14-.04-.2-.2-.12-.32l.85-1.3c.25-.36.66-.58 1.09-.58m0-3c-1.45 0-2.8.73-3.59 1.94l-.85 1.3c-.56.86-.68 1.94-.31 2.9s1.18 1.69 2.17 1.95l6.62 1.77c.36.1.74.15 1.11.15 1.03 0 2.02-.37 2.8-1.04 1-.86 1.4-2.18 1.04-3.46-.84-3-6.58-5.18-8.28-5.46-.24-.03-.47-.05-.71-.05z"/></g><g clip-path="url(#b)" fill="url(#c)"><path d="m91.68 72.8-3.61-2.66c-2.26-1.66-4.9-2.73-7.69-3.1l-5.07-.68c-2.08-.28-4.12.7-5.21 2.5-.39.64-1.11.99-1.86.9l-.21-.03c-.87-.11-1.55-.8-1.65-1.67l-.25-2.29c-.11-.96-.92-1.69-1.88-1.69-1.31 0-2.22-1.29-1.79-2.52l.22-.63c.3-.85-.3-1.75-1.2-1.8l-1.54-.09c-.58-.03-1.15.17-1.58.56-1.02.93-2.65.67-3.33-.53l-.08-.13c-.33-.58-.38-1.28-.12-1.9l.73-1.77c.73-1.76 2.32-3.01 4.2-3.29l2.5-.38c1.42-.21 2.78.64 3.2 2.01l.01.05c.41 1.33 1.71 2.16 3.09 1.98.71-.09 1.22-.72 1.18-1.43l-.25-3.9c-.02-.35.09-.69.31-.95l.09-.11c4.34-5.23 9.87-9.34 16.14-11.97l3.69-1.55c2.27-.95 3.32-3.57 2.34-5.83l-4.56-10.52c-.43-.98-1.64-1.35-2.54-.77-.89.57-2.07.23-2.52-.73l-1.76-3.76c-.63-1.34-1.98-2.2-3.46-2.2h-.28c-1.97 0-3.62 1.5-3.81 3.46l-.87 8.97c-.08.82-.71 1.49-1.52 1.62-.58.09-1.16-.1-1.57-.52l-7.81-7.9c-.9-.91-1.15-2.28-.65-3.45 1.22-2.8 3.76-4.81 6.76-5.34l1.34-.24c2.36-.42 4.01-2.56 3.82-4.94l-.42-5.14c-.18-2.21-2.21-3.8-4.4-3.43l-12.48 2.1c-4.74.79-9.6-.14-13.71-2.62l-4.17-2.52c-1.02-.62-2.26-.65-3.29-.16-.93.45-2.1.4-2.9 1.06-5.58 4.66-26.08 5.22-27.16 5.29-.53.03-1 .37-1.19.87l-.68 1.79c-.3.79.19 1.66 1.02 1.82 1.02.19 1.46 1.41.79 2.21l-1.84 2.19-.01.01c-.39.48-.15 1.22.41 1.47l7.25 3.33c2.5 1.15 5.26 1.46 8 1.2 1.45-.14 2.93.17 4.23.94l.64.38c3.06 1.82 5.65 4.31 7.6 7.29l2.17 3.32c1.57 2.41 2.48 5.19 2.62 8.07l.21 4.26c.11 2.29.78 4.52 1.94 6.5l8.5 14.54c1.21 2.06 3.09 3.65 5.33 4.49l8.78 3.29c.24.09.46.25.61.46l3.59 4.82c.27.36.66.62 1.1.72l.45.1c1.28.29 1.89 1.76 1.18 2.87l-.23.36c-1.1 1.73-1.48 3.83-1.05 5.84l1.33 6.22c.44 2.05 1.48 3.91 2.98 5.36l1.3 1.25c1.81 1.74 2.51 4.33 1.82 6.75l-6.23 21.96c-.51 1.79-.46 3.69.13 5.45l1.18 3.49c.58 1.71 2.06 2.95 3.84 3.22l2.76.42c1.41.22 2.37-1.37 1.53-2.52l-1.06-1.45c-1.51-2.07-1.33-4.92.44-6.77l14.93-15.66c1.24-1.3 1.99-2.98 2.13-4.77l.03-.44c.14-1.77 1.42-3.25 3.15-3.64l2.85-.64c1.12-.25 2.07-.97 2.62-1.97l4.85-8.8c1.11-2.01.3-4.54-1.76-5.53l-7.06-3.4c-1.58-.76-2.78-2.15-3.31-3.82-.4-1.29-1.2-2.41-2.29-3.21z"/><path d="m73.98 57.46c-1.67.4-4.15 1.01-5.51 1.35-.43.11-.58.64-.27.95l.33.34c.91.94 2.22 1.38 3.52 1.18l1.48-.22c.73-.11 1.48-.11 2.22.01l8.14 1.29c.5.08 1-.14 1.29-.56l.46-.68c.3-.46.08-1.07-.45-1.23-1.86-.55-5.73-1.69-7.92-2.34-1.07-.32-2.2-.35-3.29-.09z"/><path d="m88.45 61.5-.85 1.3c-.08.12-.02.28.12.32l6.62 1.77c.42.11.86.01 1.18-.27.93-.8-3.64-3.33-5.78-3.68-.5-.09-1.01.13-1.29.56z"/></g><path d="m64 7c31.43 0 57 25.57 57 57s-25.57 57-57 57-57-25.57-57-57 25.57-57 57-57m0-3c-33.14 0-60 26.86-60 60s26.86 60 60 60 60-26.86 60-60-26.86-60-60-60z" fill="#424242" opacity=".2"/></svg>